# Blender v2.79 (sub 0) OBJ File: ''
# www.blender.org
mtllib CarpetFloor.mtl
o Cube
v 1.086762 0.004106 -1.274527
v 1.086762 0.004106 1.293614
v -0.686925 0.004106 1.293613
v -0.686925 0.004106 -1.274528
v 1.086763 0.005152 -1.274527
v 1.086761 0.005152 1.293614
v -0.686926 0.005152 1.293613
v -0.686925 0.005152 -1.274527
v -0.716859 0.004370 4.059181
v -0.716859 0.004370 5.332553
v -1.596314 0.004370 5.332553
v -1.596313 0.004370 4.059181
v -0.716858 0.004888 4.059181
v -0.716859 0.004888 5.332554
v -1.596314 0.004888 5.332553
v -1.596313 0.004888 4.059181
vt 0.000000 0.000000
vt 1.000000 1.000000
vt 0.000000 1.000000
vt 0.000000 0.000000
vt 1.000000 1.000000
vt 0.000000 1.000000
vt 1.000000 0.000000
vt 0.000000 1.000000
vt 1.000000 0.000000
vt 0.000000 1.000000
vt 0.000000 0.000000
vt 0.000000 0.000000
vt 1.000000 1.000000
vt 1.000000 0.000000
vt 0.000000 1.000000
vt 0.000000 0.000000
vt 1.000000 1.000000
vt 0.000000 1.000000
vt 0.000000 0.000000
vt 1.000000 1.000000
vt 0.000000 1.000000
vt 1.000000 0.000000
vt 0.000000 1.000000
vt 1.000000 0.000000
vt 0.000000 1.000000
vt 0.000000 0.000000
vt 0.000000 0.000000
vt 1.000000 1.000000
vt 1.000000 0.000000
vt 0.000000 1.000000
vt 1.000000 0.000000
vt 1.000000 0.000000
vt 1.000000 1.000000
vt 1.000000 0.000000
vt 1.000000 1.000000
vt 1.000000 0.000000
vt 1.000000 0.000000
vt 1.000000 1.000000
vt 1.000000 0.000000
vt 1.000000 1.000000
vn 0.0000 -1.0000 0.0000
vn 0.0000 1.0000 0.0000
vn 1.0000 -0.0007 0.0000
vn -0.0000 -0.0007 1.0000
vn -1.0000 -0.0002 -0.0000
vn 0.0000 0.0006 -1.0000
vn 1.0000 -0.0004 0.0000
vn -0.0000 -0.0009 1.0000
vn -1.0000 -0.0001 -0.0000
vn 0.0000 0.0000 -1.0000
vn 1.0000 0.0009 0.0000
vn -0.0000 0.0002 1.0000
vn 0.0000 0.0005 -1.0000
vn 1.0000 0.0006 0.0000
vn -0.0000 0.0000 1.0000
vn -1.0000 0.0000 -0.0000
vn 0.0000 0.0009 -1.0000
usemtl Material
s off
f 1/1/1 3/2/1 4/3/1
f 5/4/2 7/5/2 6/6/2
f 5/7/3 2/8/3 1/1/3
f 6/9/4 3/10/4 2/11/4
f 3/12/5 8/13/5 4/3/5
f 1/14/6 8/15/6 5/4/6
f 9/16/1 11/17/1 12/18/1
f 13/19/2 15/20/2 14/21/2
f 13/22/7 10/23/7 9/16/7
f 14/24/8 11/25/8 10/26/8
f 11/27/9 16/28/9 12/18/9
f 9/29/10 16/30/10 13/19/10
f 1/1/1 2/31/1 3/2/1
f 5/4/2 8/32/2 7/5/2
f 5/7/11 6/33/11 2/8/11
f 6/9/12 7/5/12 3/10/12
f 3/12/9 7/34/9 8/13/9
f 1/14/13 4/35/13 8/15/13
f 9/16/1 10/36/1 11/17/1
f 13/19/2 16/37/2 15/20/2
f 13/22/14 14/38/14 10/23/14
f 14/24/15 15/20/15 11/25/15
f 11/27/16 15/39/16 16/28/16
f 9/29/17 12/40/17 16/30/17
