# Blender v2.78 (sub 0) OBJ File: 'untitled.blend'
# www.blender.org
mtllib Floor.mtl
o WallPiece6_32_SM_FloorPiece
v -0.395000 0.000000 -3.195000
v 1.595000 0.000000 -3.195000
v 1.600000 0.000000 -3.200000
v -0.400000 0.000000 -3.200000
v -1.095000 0.000000 -3.195000
v -0.405000 0.000000 -3.195000
v -1.100000 0.000000 -3.200000
v -2.524524 -0.000000 2.505000
v -2.524524 -0.000000 3.995000
v -1.905000 -0.000000 3.995000
v -1.905000 -0.000000 2.505000
v -1.895000 -0.000000 3.995000
v -1.905000 -0.000000 2.495000
v -2.524524 -0.000000 2.495000
v -2.524524 -0.000000 1.105000
v -1.905000 -0.000000 1.105000
v -1.895000 -0.000000 2.495000
v -1.895000 -0.000000 1.105000
v -1.895000 -0.000000 2.505000
v -1.205000 -0.000000 3.995000
v -1.895000 -0.000000 4.005000
v -1.205000 -0.000000 2.495000
v -1.895000 -0.000000 5.945524
v -1.205000 -0.000000 5.945524
v -1.205000 -0.000000 4.005000
v -1.195000 -0.000000 5.945524
v -1.195000 -0.000000 4.005000
v -1.105000 -0.000000 5.945524
v -1.205000 -0.000000 2.505000
v -1.195000 -0.000000 3.995000
v -1.105000 -0.000000 4.005000
v -1.095000 -0.000000 5.945524
v -1.105000 -0.000000 3.995000
v -1.195000 -0.000000 2.505000
v -1.095000 -0.000000 4.005000
v -0.405000 -0.000000 5.945524
v -0.405000 -0.000000 4.005000
v -0.405000 -0.000000 3.995000
v -1.095000 -0.000000 3.995000
v -1.105000 -0.000000 2.505000
v -1.095000 -0.000000 2.505000
v -1.105000 -0.000000 2.495000
v -1.195000 -0.000000 2.495000
v -1.095000 -0.000000 2.495000
v -1.205000 -0.000000 1.105000
v -1.105000 -0.000000 1.105000
v -1.195000 -0.000000 1.105000
v -1.205000 -0.000000 1.095000
v -1.895000 -0.000000 1.095000
v -1.105000 -0.000000 1.095000
v -1.205000 0.000000 -1.195013
v -1.895000 0.000000 -1.196815
v -1.195000 -0.000000 1.095000
v -1.205000 0.000000 -1.205013
v -1.895000 0.000000 -1.206815
v -1.195000 0.000000 -1.195000
v -1.205000 0.000000 -2.795000
v -1.195000 0.000000 -1.205000
v -1.105000 0.000000 -1.195000
v -1.105000 0.000000 -1.205000
v -1.195000 0.000000 -2.795000
v -1.095000 -0.000000 1.095000
v -1.095000 0.000000 -1.195000
v -1.095000 -0.000000 1.105000
v -0.405000 -0.000000 1.095000
v -0.405000 -0.000000 2.495000
v -0.405000 -0.000000 1.105000
v -0.405000 -0.000000 2.505000
v -0.395000 -0.000000 3.995000
v -0.395000 -0.000000 2.495000
v -0.395000 -0.000000 2.505000
v 1.595000 -0.000000 3.995000
v -0.395000 -0.000000 1.105000
v 1.595000 -0.000000 2.495000
v 1.595000 -0.000000 2.505000
v 1.605000 -0.000000 3.995000
v 1.605000 -0.000000 2.505000
v 1.995000 -0.000000 3.995000
v 1.995000 -0.000000 2.505000
v 1.995000 -0.000000 2.495000
v 1.605000 -0.000000 2.495000
v 1.595000 -0.000000 1.105000
v 1.605000 -0.000000 1.105000
v 1.995000 -0.000000 1.105000
v 1.995000 -0.000000 1.095000
v 1.595000 -0.000000 1.095000
v 1.605000 -0.000000 1.095000
v 1.995000 0.000000 -1.195000
v -0.395000 -0.000000 1.095000
v 1.605000 0.000000 -1.195000
v 1.995000 0.000000 -1.205000
v 1.595000 0.000000 -1.195000
v -0.395000 0.000000 -1.195000
v -0.405000 0.000000 -1.195000
v 1.595000 0.000000 -1.205000
v -0.405000 0.000000 -1.205000
v -0.395000 0.000000 -1.205000
v 1.605000 0.000000 -1.205000
v 1.995000 0.000000 -2.795000
v 1.605000 0.000000 -2.795000
v 1.995000 0.000000 -2.805000
v 1.595000 0.000000 -2.795000
v 1.605000 0.000000 -2.805000
v 1.995000 0.000000 -2.995000
v 1.605000 0.000000 -2.995000
v 1.595000 0.000000 -2.995000
v 1.595000 0.000000 -2.805000
v -0.395000 0.000000 -2.795000
v -0.395000 0.000000 -2.995000
v 1.595000 0.000000 -3.005000
v -0.395000 0.000000 -2.805000
v -0.405000 0.000000 -2.795000
v -0.405000 0.000000 -2.805000
v -0.405000 0.000000 -2.995000
v -1.095000 0.000000 -2.795000
v -1.095000 0.000000 -1.205000
v -1.105000 0.000000 -2.795000
v -1.095000 0.000000 -2.805000
v -1.095000 0.000000 -2.995000
v -1.105000 0.000000 -2.805000
v -1.105000 0.000000 -2.995000
v -1.195000 0.000000 -2.995000
v -0.405000 0.000000 -3.005000
v -1.095000 0.000000 -3.005000
v -0.395000 0.000000 -3.005000
v -1.195000 0.000000 -2.805000
v -1.205000 0.000000 -2.995000
v -1.205000 0.000000 -2.805000
v -1.895000 0.000000 -2.805000
v -1.895000 0.000000 -2.995000
v -1.895000 0.000000 -2.795000
v -1.905000 0.000000 -2.995000
v -1.905000 0.000000 -2.795000
v -1.905000 0.000000 -1.206828
v -1.905000 0.000000 -2.805000
v -2.524524 0.000000 -2.995000
v -2.524524 0.000000 -2.805000
v -2.524524 0.000000 -2.795000
v -2.524524 0.000000 -1.206828
vt 0.1050 4.8945
vt 2.0938 4.8945
vt 2.0996 4.8984
vt 0.1000 4.8984
vt -0.5947 4.8945
vt 0.0950 4.8945
vt -0.5996 4.8984
vt -2.0234 -0.8047
vt -2.0234 -2.2949
vt -1.4043 -2.2949
vt -1.4043 -0.8047
vt -1.3945 -2.2949
vt -1.4043 -0.7949
vt -2.0234 -0.7949
vt -2.0234 0.5952
vt -1.4043 0.5952
vt -1.3945 -0.7949
vt -1.3945 0.5952
vt -1.3945 -0.8047
vt -0.7046 -2.2949
vt -1.3945 -2.3047
vt -0.7046 -0.7949
vt -1.3945 -4.2422
vt -0.7046 -4.2422
vt -0.7046 -2.3047
vt -0.6948 -4.2422
vt -0.6948 -2.3047
vt -0.6050 -4.2422
vt -0.7046 -0.8047
vt -0.6948 -2.2949
vt -0.6050 -2.3047
vt -0.5947 -4.2422
vt -0.6050 -2.2949
vt -0.6948 -0.8047
vt -0.5947 -2.3047
vt 0.0950 -4.2422
vt 0.0950 -2.3047
vt 0.0950 -2.2949
vt -0.5947 -2.2949
vt -0.6050 -0.8047
vt -0.5947 -0.8047
vt -0.6050 -0.7949
vt -0.6948 -0.7949
vt -0.5947 -0.7949
vt -0.7046 0.5952
vt -0.6050 0.5952
vt -0.6948 0.5952
vt -0.7046 0.6052
vt -1.3945 0.6052
vt -0.6050 0.6052
vt -0.7046 2.8945
vt -1.3945 2.8965
vt -0.6948 0.6052
vt -0.7046 2.9043
vt -1.3945 2.9062
vt -0.6948 2.8945
vt -0.7046 4.4941
vt -0.6948 2.9043
vt -0.6050 2.8945
vt -0.6050 2.9043
vt -0.6948 4.4941
vt -0.5947 0.6052
vt -0.5947 2.8945
vt -0.5947 0.5952
vt 0.0950 0.6052
vt 0.0950 -0.7949
vt 0.0950 0.5952
vt 0.0950 -0.8047
vt 0.1050 -2.2949
vt 0.1050 -0.7949
vt 0.1050 -0.8047
vt 2.0938 -2.2949
vt 0.1050 0.5952
vt 2.0938 -0.7949
vt 2.0938 -0.8047
vt 2.1035 -2.2949
vt 2.1035 -0.8047
vt 2.4941 -2.2949
vt 2.4941 -0.8047
vt 2.4941 -0.7949
vt 2.1035 -0.7949
vt 2.0938 0.5952
vt 2.1035 0.5952
vt 2.4941 0.5952
vt 2.4941 0.6052
vt 2.0938 0.6052
vt 2.1035 0.6052
vt 2.4941 2.8945
vt 0.1050 0.6052
vt 2.1035 2.8945
vt 2.4941 2.9043
vt 2.0938 2.8945
vt 0.1050 2.8945
vt 0.0950 2.8945
vt 2.0938 2.9043
vt 0.0950 2.9043
vt 0.1050 2.9043
vt 2.1035 2.9043
vt 2.4941 4.4941
vt 2.1035 4.4941
vt 2.4941 4.5039
vt 2.0938 4.4941
vt 2.1035 4.5039
vt 2.4941 4.6934
vt 2.1035 4.6934
vt 2.0938 4.6934
vt 2.0938 4.5039
vt 0.1050 4.4941
vt 0.1050 4.6934
vt 2.0938 4.7031
vt 0.1050 4.5039
vt 0.0950 4.4941
vt 0.0950 4.5039
vt 0.0950 4.6934
vt -0.5947 4.4941
vt -0.5947 2.9043
vt -0.6050 4.4941
vt -0.5947 4.5039
vt -0.5947 4.6934
vt -0.6050 4.5039
vt -0.6050 4.6934
vt -0.6948 4.6934
vt 0.0950 4.7031
vt -0.5947 4.7031
vt 0.1050 4.7031
vt -0.6948 4.5039
vt -0.7046 4.6934
vt -0.7046 4.5039
vt -1.3945 4.5039
vt -1.3945 4.6934
vt -1.3945 4.4941
vt -1.4043 4.6934
vt -1.4043 4.4941
vt -1.4043 2.9062
vt -1.4043 4.5039
vt -2.0234 4.6934
vt -2.0234 4.5039
vt -2.0234 4.4941
vt -2.0234 2.9062
vn -0.0039 1.0000 -0.0039
usemtl M_WoodFloor_MAT_Inst
s 1
f 1/1/1 2/2/1 3/3/1
f 3/3/1 4/4/1 1/1/1
f 5/5/1 6/6/1 4/4/1
f 4/4/1 7/7/1 5/5/1
f 8/8/1 9/9/1 10/10/1
f 10/10/1 11/11/1 8/8/1
f 11/11/1 10/10/1 12/12/1
f 8/8/1 11/11/1 13/13/1
f 13/13/1 14/14/1 8/8/1
f 15/15/1 14/14/1 13/13/1
f 13/13/1 16/16/1 15/15/1
f 16/16/1 13/13/1 17/17/1
f 17/17/1 13/13/1 11/11/1
f 17/17/1 18/18/1 16/16/1
f 12/12/1 19/19/1 11/11/1
f 11/11/1 19/19/1 17/17/1
f 19/19/1 12/12/1 20/20/1
f 20/20/1 12/12/1 21/21/1
f 22/22/1 17/17/1 19/19/1
f 21/21/1 23/23/1 24/24/1
f 24/24/1 25/25/1 21/21/1
f 21/21/1 25/25/1 20/20/1
f 25/25/1 24/24/1 26/26/1
f 26/26/1 27/27/1 25/25/1
f 20/20/1 25/25/1 27/27/1
f 27/27/1 26/26/1 28/28/1
f 20/20/1 29/29/1 19/19/1
f 19/19/1 29/29/1 22/22/1
f 27/27/1 30/30/1 20/20/1
f 29/29/1 20/20/1 30/30/1
f 28/28/1 31/31/1 27/27/1
f 31/31/1 28/28/1 32/32/1
f 33/33/1 30/30/1 27/27/1
f 27/27/1 31/31/1 33/33/1
f 30/30/1 34/34/1 29/29/1
f 34/34/1 30/30/1 33/33/1
f 32/32/1 35/35/1 31/31/1
f 33/33/1 31/31/1 35/35/1
f 35/35/1 32/32/1 36/36/1
f 36/36/1 37/37/1 35/35/1
f 35/35/1 37/37/1 38/38/1
f 35/35/1 39/39/1 33/33/1
f 38/38/1 39/39/1 35/35/1
f 40/40/1 33/33/1 39/39/1
f 33/33/1 40/40/1 34/34/1
f 41/41/1 39/39/1 38/38/1
f 39/39/1 41/41/1 40/40/1
f 34/34/1 40/40/1 42/42/1
f 42/42/1 40/40/1 41/41/1
f 29/29/1 34/34/1 43/43/1
f 42/42/1 43/43/1 34/34/1
f 43/43/1 22/22/1 29/29/1
f 41/41/1 44/44/1 42/42/1
f 45/45/1 22/22/1 43/43/1
f 17/17/1 22/22/1 45/45/1
f 45/45/1 18/18/1 17/17/1
f 43/43/1 42/42/1 46/46/1
f 46/46/1 42/42/1 44/44/1
f 43/43/1 47/47/1 45/45/1
f 46/46/1 47/47/1 43/43/1
f 18/18/1 45/45/1 48/48/1
f 48/48/1 45/45/1 47/47/1
f 48/48/1 49/49/1 18/18/1
f 47/47/1 46/46/1 50/50/1
f 49/49/1 48/48/1 51/51/1
f 51/51/1 52/52/1 49/49/1
f 47/47/1 53/53/1 48/48/1
f 51/51/1 48/48/1 53/53/1
f 50/50/1 53/53/1 47/47/1
f 52/52/1 51/51/1 54/54/1
f 54/54/1 55/55/1 52/52/1
f 53/53/1 56/56/1 51/51/1
f 54/54/1 51/51/1 56/56/1
f 56/56/1 53/53/1 50/50/1
f 55/55/1 54/54/1 57/57/1
f 56/56/1 58/58/1 54/54/1
f 57/57/1 54/54/1 58/58/1
f 50/50/1 59/59/1 56/56/1
f 60/60/1 58/58/1 56/56/1
f 56/56/1 59/59/1 60/60/1
f 58/58/1 61/61/1 57/57/1
f 61/61/1 58/58/1 60/60/1
f 59/59/1 50/50/1 62/62/1
f 60/60/1 59/59/1 63/63/1
f 62/62/1 63/63/1 59/59/1
f 64/64/1 62/62/1 50/50/1
f 50/50/1 46/46/1 64/64/1
f 44/44/1 64/64/1 46/46/1
f 63/63/1 62/62/1 65/65/1
f 65/65/1 62/62/1 64/64/1
f 64/64/1 44/44/1 66/66/1
f 66/66/1 44/44/1 41/41/1
f 64/64/1 67/67/1 65/65/1
f 66/66/1 67/67/1 64/64/1
f 41/41/1 68/68/1 66/66/1
f 38/38/1 68/68/1 41/41/1
f 68/68/1 38/38/1 69/69/1
f 67/67/1 66/66/1 70/70/1
f 70/70/1 66/66/1 68/68/1
f 69/69/1 71/71/1 68/68/1
f 68/68/1 71/71/1 70/70/1
f 71/71/1 69/69/1 72/72/1
f 70/70/1 73/73/1 67/67/1
f 65/65/1 67/67/1 73/73/1
f 74/74/1 70/70/1 71/71/1
f 73/73/1 70/70/1 74/74/1
f 72/72/1 75/75/1 71/71/1
f 71/71/1 75/75/1 74/74/1
f 75/75/1 72/72/1 76/76/1
f 76/76/1 77/77/1 75/75/1
f 74/74/1 75/75/1 77/77/1
f 77/77/1 76/76/1 78/78/1
f 78/78/1 79/79/1 77/77/1
f 77/77/1 79/79/1 80/80/1
f 77/77/1 81/81/1 74/74/1
f 80/80/1 81/81/1 77/77/1
f 82/82/1 74/74/1 81/81/1
f 74/74/1 82/82/1 73/73/1
f 83/83/1 81/81/1 80/80/1
f 81/81/1 83/83/1 82/82/1
f 80/80/1 84/84/1 83/83/1
f 83/83/1 84/84/1 85/85/1
f 73/73/1 82/82/1 86/86/1
f 86/86/1 82/82/1 83/83/1
f 85/85/1 87/87/1 83/83/1
f 83/83/1 87/87/1 86/86/1
f 87/87/1 85/85/1 88/88/1
f 86/86/1 89/89/1 73/73/1
f 73/73/1 89/89/1 65/65/1
f 88/88/1 90/90/1 87/87/1
f 90/90/1 88/88/1 91/91/1
f 92/92/1 86/86/1 87/87/1
f 87/87/1 90/90/1 92/92/1
f 93/93/1 89/89/1 86/86/1
f 86/86/1 92/92/1 93/93/1
f 94/94/1 65/65/1 89/89/1
f 89/89/1 93/93/1 94/94/1
f 65/65/1 94/94/1 63/63/1
f 93/93/1 92/92/1 95/95/1
f 95/95/1 92/92/1 90/90/1
f 96/96/1 94/94/1 93/93/1
f 63/63/1 94/94/1 96/96/1
f 95/95/1 97/97/1 93/93/1
f 93/93/1 97/97/1 96/96/1
f 90/90/1 98/98/1 95/95/1
f 91/91/1 98/98/1 90/90/1
f 98/98/1 91/91/1 99/99/1
f 99/99/1 100/100/1 98/98/1
f 100/100/1 99/99/1 101/101/1
f 102/102/1 95/95/1 98/98/1
f 98/98/1 100/100/1 102/102/1
f 101/101/1 103/103/1 100/100/1
f 102/102/1 100/100/1 103/103/1
f 103/103/1 101/101/1 104/104/1
f 104/104/1 105/105/1 103/103/1
f 103/103/1 105/105/1 106/106/1
f 103/103/1 107/107/1 102/102/1
f 106/106/1 107/107/1 103/103/1
f 95/95/1 102/102/1 108/108/1
f 108/108/1 102/102/1 107/107/1
f 108/108/1 97/97/1 95/95/1
f 107/107/1 106/106/1 109/109/1
f 109/109/1 106/106/1 110/110/1
f 107/107/1 111/111/1 108/108/1
f 109/109/1 111/111/1 107/107/1
f 97/97/1 108/108/1 112/112/1
f 112/112/1 96/96/1 97/97/1
f 108/108/1 111/111/1 113/113/1
f 113/113/1 112/112/1 108/108/1
f 111/111/1 109/109/1 114/114/1
f 114/114/1 113/113/1 111/111/1
f 96/96/1 112/112/1 115/115/1
f 115/115/1 112/112/1 113/113/1
f 115/115/1 116/116/1 96/96/1
f 96/96/1 116/116/1 63/63/1
f 63/63/1 116/116/1 60/60/1
f 117/117/1 60/60/1 116/116/1
f 116/116/1 115/115/1 117/117/1
f 60/60/1 117/117/1 61/61/1
f 113/113/1 118/118/1 115/115/1
f 117/117/1 115/115/1 118/118/1
f 113/113/1 114/114/1 119/119/1
f 119/119/1 118/118/1 113/113/1
f 61/61/1 117/117/1 120/120/1
f 118/118/1 120/120/1 117/117/1
f 118/118/1 119/119/1 121/121/1
f 121/121/1 120/120/1 118/118/1
f 120/120/1 121/121/1 122/122/1
f 119/119/1 114/114/1 123/123/1
f 123/123/1 114/114/1 109/109/1
f 123/123/1 124/124/1 119/119/1
f 5/5/1 124/124/1 123/123/1
f 123/123/1 6/6/1 5/5/1
f 109/109/1 125/125/1 123/123/1
f 6/6/1 123/123/1 125/125/1
f 110/110/1 125/125/1 109/109/1
f 125/125/1 1/1/1 6/6/1
f 1/1/1 125/125/1 110/110/1
f 6/6/1 1/1/1 4/4/1
f 110/110/1 2/2/1 1/1/1
f 122/122/1 126/126/1 120/120/1
f 120/120/1 126/126/1 61/61/1
f 126/126/1 122/122/1 127/127/1
f 57/57/1 61/61/1 126/126/1
f 127/127/1 128/128/1 126/126/1
f 126/126/1 128/128/1 57/57/1
f 129/129/1 128/128/1 127/127/1
f 127/127/1 130/130/1 129/129/1
f 131/131/1 57/57/1 128/128/1
f 128/128/1 129/129/1 131/131/1
f 57/57/1 131/131/1 55/55/1
f 129/129/1 130/130/1 132/132/1
f 55/55/1 131/131/1 133/133/1
f 133/133/1 131/131/1 129/129/1
f 133/133/1 134/134/1 55/55/1
f 132/132/1 135/135/1 129/129/1
f 129/129/1 135/135/1 133/133/1
f 135/135/1 132/132/1 136/136/1
f 136/136/1 137/137/1 135/135/1
f 135/135/1 137/137/1 138/138/1
f 138/138/1 133/133/1 135/135/1
f 134/134/1 133/133/1 138/138/1
f 138/138/1 139/139/1 134/134/1
