# Blender v2.79 (sub 0) OBJ File: 'untitled.blend'
# www.blender.org
mtllib Painting1.mtl
o SM_Frame_3.003_SM_Frame_1.003
v -1.998273 1.784804 2.384814
v -1.997654 1.900861 2.209192
v -1.998278 1.783871 2.209816
v -1.997649 1.901794 2.384190
v 1.985066 1.469440 0.520532
v 1.983298 1.801031 1.022307
v 1.985080 1.466774 1.020525
v 1.983283 1.803698 0.522314
vt 0.995827 -0.002707
vt -0.002663 -0.000754
vt -0.002663 0.687033
vt 0.995827 0.685080
vt 0.995827 -0.002707
vt -0.002663 -0.000754
vt -0.002663 0.687033
vt 0.995827 0.685080
vn 0.9999 -0.0092 0.0040
vn 1.0000 -0.0014 -0.0040
vn -0.9999 -0.0092 -0.0040
vn -1.0000 -0.0014 0.0040
usemtl M_Painting_1
s 1
f 1/1/1 3/2/2 2/3/1
f 2/3/1 4/4/2 1/1/1
f 5/5/3 7/6/4 6/7/3
f 6/7/3 8/8/4 5/5/3
