# Blender v2.79 (sub 0) OBJ File: 'untitled.blend'
# www.blender.org
mtllib Painting3.mtl
o SM_Frame_3.005_SM_Frame_1.005
v -1.998273 1.124804 2.384814
v -1.997655 1.240861 2.209192
v -1.998279 1.123871 2.209816
v -1.997649 1.241794 2.384190
v 1.985066 1.469440 -1.449468
v 1.983297 1.801031 -0.947692
v 1.985080 1.466774 -0.949475
v 1.983283 1.803698 -1.447686
vt 0.993079 0.004820
vt -0.001514 0.004820
vt -0.001514 0.659293
vt 0.993079 0.659293
vt 0.997111 0.000108
vt 0.000108 0.000108
vt 0.000109 0.656192
vt 0.997112 0.656192
vn 0.9999 -0.0092 0.0040
vn 1.0000 -0.0014 -0.0040
vn -0.9999 -0.0092 -0.0040
vn -1.0000 -0.0014 0.0040
usemtl M_Painting_1
s 1
f 1/1/1 3/2/2 2/3/1
f 2/3/1 4/4/2 1/1/1
f 5/5/3 7/6/4 6/7/3
f 6/7/3 8/8/4 5/5/3
