# Blender v2.79 (sub 0) OBJ File: 'untitled.blend'
# www.blender.org
mtllib GlassPane.mtl
o SM_Frame_3.001_SM_Frame_1.001
v -1.995026 1.900847 2.209192
v -1.995644 1.784790 2.384814
v -1.995650 1.783857 2.209816
v -1.995020 1.901780 2.384190
v -1.995026 1.240847 2.209192
v -1.995645 1.124790 2.384814
v -1.995650 1.123857 2.209816
v -1.995021 1.241780 2.384190
v -1.995026 1.578590 2.207595
v -1.995645 1.464413 2.384445
v -1.995650 1.461613 2.209467
v -1.995021 1.581390 2.382573
v 1.975788 1.800991 1.022307
v 1.977556 1.469400 0.520532
v 1.977571 1.466734 1.020525
v 1.975773 1.803658 0.522315
v 1.975788 1.800991 -0.947693
v 1.977556 1.469400 -1.449468
v 1.977571 1.466734 -0.949475
v 1.975773 1.803658 -1.447686
v 1.975787 1.807391 0.037677
v 1.977556 1.470467 -0.460534
v 1.977571 1.473133 0.039459
v 1.975773 1.804724 -0.462316
vt 0.614746 0.996048
vt 0.996094 0.547852
vt 0.996094 0.996048
vt 0.614746 0.547852
vt 0.614746 0.996048
vt 0.996094 0.547852
vt 0.996094 0.996048
vt 0.614746 0.547852
vt 0.614746 0.996048
vt 0.996094 0.547852
vt 0.996094 0.996048
vt 0.614746 0.547852
vt 0.614746 0.996048
vt 0.996094 0.547852
vt 0.996094 0.996048
vt 0.614746 0.547852
vt 0.614746 0.996048
vt 0.996094 0.547852
vt 0.996094 0.996048
vt 0.614746 0.547852
vt 0.614746 0.996048
vt 0.996094 0.547852
vt 0.996094 0.996048
vt 0.614746 0.547852
vn 0.9999 -0.0092 0.0040
vn -0.9999 -0.0092 -0.0040
vn -0.9999 -0.0093 -0.0039
usemtl M_Painting_1
s 1
f 1/1/1 2/2/1 3/3/1
f 2/2/1 1/1/1 4/4/1
f 5/5/1 6/6/1 7/7/1
f 6/6/1 5/5/1 8/8/1
f 9/9/1 10/10/1 11/11/1
f 10/10/1 9/9/1 12/12/1
f 13/13/2 14/14/2 15/15/2
f 14/14/2 13/13/2 16/16/2
f 17/17/2 18/18/2 19/19/2
f 18/18/2 17/17/2 20/20/2
f 21/21/3 22/22/3 23/23/3
f 22/22/3 21/21/3 24/24/3
