# Blender v2.78 (sub 0) OBJ File: ''
# www.blender.org
mtllib CarpetFloor.mtl
o Cube.001
v 1.086762 0.004106 -1.274527
v -0.686925 0.004106 1.293613
v -0.686925 0.004106 -1.274528
v 1.086763 0.005152 -1.274527
v -0.686926 0.005152 1.293613
v 1.086761 0.005152 1.293614
v 1.086762 0.004106 1.293614
v -0.686925 0.005152 -1.274527
v -0.716859 0.004369 4.059181
v -1.596314 0.004369 5.332553
v -1.596313 0.004369 4.059181
v -0.716858 0.004887 4.059181
v -1.596314 0.004887 5.332553
v -0.716859 0.004887 5.332554
v -0.716859 0.004369 5.332553
v -1.596313 0.004887 4.059181
vt -1.0556 -1.0556
vt 2.0556 2.0556
vt -1.0556 2.0556
vt -1.0556 -1.0556
vt 2.0556 2.0556
vt -1.0556 2.0556
vt 2.0556 -1.0556
vt -1.0556 2.0556
vt 2.0556 -1.0556
vt -1.0556 2.0556
vt -1.0556 -1.0556
vt -1.0556 -1.0556
vt 2.0556 2.0556
vt 2.0556 -1.0556
vt -1.0556 2.0556
vt -1.0556 -1.0556
vt 2.0556 2.0556
vt -1.0556 2.0556
vt -1.0556 -1.0556
vt 2.0556 2.0556
vt -1.0556 2.0556
vt 2.0556 -1.0556
vt -1.0556 2.0556
vt 2.0556 -1.0556
vt -1.0556 2.0556
vt -1.0556 -1.0556
vt -1.0556 -1.0556
vt 2.0556 2.0556
vt 2.0556 -1.0556
vt -1.0556 2.0556
vt 2.0556 -1.0556
vt 2.0556 -1.0556
vt 2.0556 2.0556
vt 2.0556 -1.0556
vt 2.0556 2.0556
vt 2.0556 -1.0556
vt 2.0556 -1.0556
vt 2.0556 2.0556
vt 2.0556 -1.0556
vt 2.0556 2.0556
vn 0.0000 -1.0000 -0.0000
vn -0.0000 1.0000 0.0000
vn 1.0000 0.0003 0.0000
vn 1.0000 -0.0002 -0.0000
vn 1.0000 -0.0009 -0.0000
vn 0.0000 -0.0005 1.0000
vn 0.0000 -0.0007 1.0000
vn -1.0000 -0.0001 -0.0000
vn 0.0000 0.0005 -1.0000
vn 0.0000 0.0007 -1.0000
vn 1.0000 0.0001 0.0000
vn 1.0000 -0.0004 -0.0000
vn -0.0000 -0.0004 1.0000
vn 0.0000 -0.0006 1.0000
vn 0.0000 -0.0009 1.0000
vn -1.0000 0.0000 -0.0000
vn 0.0000 0.0006 -1.0000
vn 0.0000 0.0000 -1.0000
vn 1.0000 0.0009 0.0000
vn -0.0000 -0.0000 1.0000
vn 1.0000 0.0004 0.0000
vn 0.0000 0.0009 -1.0000
usemtl Material.001
s 1
f 1/1/1 2/2/1 3/3/1
f 4/4/2 5/5/2 6/6/2
f 4/7/3 7/8/4 1/1/5
f 6/9/6 2/10/6 7/11/7
f 2/12/8 8/13/8 3/3/8
f 1/14/9 8/15/10 4/4/9
f 9/16/1 10/17/1 11/18/1
f 12/19/2 13/20/2 14/21/2
f 12/22/11 15/23/11 9/16/12
f 14/24/13 10/25/14 15/26/15
f 10/27/16 16/28/16 11/18/16
f 9/29/17 16/30/17 12/19/18
f 1/1/1 7/31/1 2/2/1
f 4/4/2 8/32/2 5/5/2
f 4/7/3 6/33/19 7/8/4
f 6/9/6 5/5/20 2/10/6
f 2/12/8 5/34/8 8/13/8
f 1/14/9 3/35/10 8/15/10
f 9/16/1 15/36/1 10/17/1
f 12/19/2 16/37/2 13/20/2
f 12/22/11 14/38/21 15/23/11
f 14/24/13 13/20/20 10/25/14
f 10/27/16 13/39/16 16/28/16
f 9/29/17 11/40/22 16/30/17
